<svg width="21" height="22" viewBox="0 0 21 22" fill="none" xmlns="http://www.w3.org/2000/svg">
<g clip-path="url(#clip0_295_761)">
<g opacity="0.3" style="mix-blend-mode:plus-darker">
<path d="M20.753 11.4151C20.753 13.4675 20.1444 15.4738 19.0041 17.1803C17.8638 18.8869 16.2431 20.2169 14.3469 21.0023C12.4507 21.7877 10.3642 21.9931 8.35121 21.5926C6.33824 21.1921 4.48924 20.2037 3.03803 18.7524C1.58682 17.301 0.598583 15.4519 0.198297 13.4389C-0.201989 11.4259 0.00365341 9.33942 0.789217 7.44329C1.57478 5.54716 2.90498 3.92656 4.6116 2.78644C6.31822 1.64632 8.32461 1.03789 10.377 1.03809C11.7397 1.03809 13.089 1.3065 14.348 1.82801C15.6069 2.34951 16.7508 3.11389 17.7143 4.0775C18.6778 5.04111 19.4421 6.18507 19.9635 7.44406C20.4849 8.70305 20.7532 10.0524 20.753 11.4151Z" fill="#3899BF"/>
</g>
<path d="M20.753 10.377C20.753 12.4294 20.1444 14.4357 19.0041 16.1423C17.8638 17.8488 16.2431 19.1788 14.3469 19.9642C12.4507 20.7496 10.3642 20.955 8.35121 20.5545C6.33824 20.1541 4.48924 19.1656 3.03803 17.7143C1.58682 16.2629 0.598583 14.4138 0.198297 12.4008C-0.201989 10.3878 0.00365341 8.30133 0.789217 6.4052C1.57478 4.50907 2.90498 2.88847 4.6116 1.74835C6.31822 0.608235 8.32461 -0.000197737 10.377 4.82058e-08C11.7397 4.18773e-08 13.089 0.268416 14.348 0.789922C15.6069 1.31143 16.7508 2.07581 17.7143 3.03941C18.6778 4.00302 19.4421 5.14698 19.9635 6.40597C20.4849 7.66496 20.7532 9.01432 20.753 10.377Z" fill="#3899BF"/>
<g opacity="0.3" style="mix-blend-mode:plus-darker">
<path d="M15.025 6.03711L8.799 12.2631L6.205 9.66907L4 11.8481L6.594 14.4421L8.669 16.5171L8.799 16.6171L17.23 8.21204L15.025 6.03711Z" fill="#3899BF"/>
</g>
<path d="M15.025 5L8.799 11.226L6.205 8.63196L4 10.811L6.594 13.405L8.669 15.48L8.799 15.58L17.23 7.17493L15.025 5Z" fill="#F5F5F5"/>
</g>
<defs>
<clipPath id="clip0_295_761">
<rect width="20.753" height="21.791" fill="white"/>
</clipPath>
</defs>
</svg>
